<svg width="1em" height="1em" viewBox="0 0 64 64" fill="none" xmlns="http://www.w3.org/2000/svg">
  <circle cx="32" cy="32" r="30" fill="rgba(0, 0, 0, 0.2)"/>
  <g transform="translate(16, 11) scale(1.3)">
    <g clip-path="url(#clip0_1821_517)">
      <g filter="url(#filter0_f_1821_517)">
        <ellipse cx="4" cy="2" rx="4" ry="2" transform="matrix(-1 0 0 1 16 27)" fill="black" fill-opacity="0.12"/>
      </g>
      <mask id="path-2-outside-1_1821_517" maskUnits="userSpaceOnUse" x="1" y="1" width="22" height="28" fill="black">
        <rect fill="white" x="1" y="1" width="22" height="28"/>
        <path fill-rule="evenodd" clip-rule="evenodd"
              d="M6.08406 20.0632C3.60742 18.243 2 15.3092 2 12C2 6.47715 6.47715 2 12 2C17.5228 2 22 6.47715 22 12C22 15.3092 20.3926 18.243 17.9159 20.0632C16.0339 21.4813 13.381 23.7185 12.7712 27.3195C12.7066 27.701 12.3869 27.997 12 27.997C11.6131 27.997 11.2934 27.701 11.2288 27.3195C10.619 23.7185 7.96609 21.4813 6.08406 20.0632Z"/>
      </mask>
      <path fill-rule="evenodd" clip-rule="evenodd"
            d="M6.08406 20.0632C3.60742 18.243 2 15.3092 2 12C2 6.47715 6.47715 2 12 2C17.5228 2 22 6.47715 22 12C22 15.3092 20.3926 18.243 17.9159 20.0632C16.0339 21.4813 13.381 23.7185 12.7712 27.3195C12.7066 27.701 12.3869 27.997 12 27.997C11.6131 27.997 11.2934 27.701 11.2288 27.3195C10.619 23.7185 7.96609 21.4813 6.08406 20.0632Z"
            fill="black"/>
      <path
        d="M6.08406 20.0632L6.67631 19.2573L6.68586 19.2645L6.08406 20.0632ZM17.9159 20.0632L17.3141 19.2645L17.3237 19.2574L17.9159 20.0632ZM12.7712 27.3195L13.7572 27.4865H13.7572L12.7712 27.3195ZM11.2288 27.3195L10.2428 27.4865H10.2428L11.2288 27.3195ZM5.49186 20.869C2.76987 18.8685 1 15.6409 1 12H3C3 14.9776 4.44497 17.6175 6.67627 19.2574L5.49186 20.869ZM1 12C1 5.92487 5.92487 1 12 1V3C7.02944 3 3 7.02944 3 12H1ZM12 1C18.0751 1 23 5.92487 23 12H21C21 7.02944 16.9706 3 12 3V1ZM23 12C23 15.6409 21.2301 18.8685 18.5081 20.869L17.3237 19.2574C19.555 17.6175 21 14.9776 21 12H23ZM11.7853 27.1526C12.4655 23.1359 15.4181 20.6933 17.3141 19.2645L18.5177 20.8618C16.6498 22.2694 14.2966 24.3011 13.7572 27.4865L11.7853 27.1526ZM12 26.997C11.9314 26.997 11.8749 27.0246 11.8407 27.0551C11.8088 27.0836 11.7911 27.118 11.7853 27.1526L13.7572 27.4865C13.6191 28.3017 12.9211 28.997 12 28.997V26.997ZM12.2147 27.1526C12.2089 27.118 12.1912 27.0836 12.1593 27.0551C12.1251 27.0246 12.0686 26.997 12 26.997V28.997C11.0789 28.997 10.3809 28.3017 10.2428 27.4865L12.2147 27.1526ZM6.68586 19.2645C8.58193 20.6933 11.5345 23.1359 12.2147 27.1526L10.2428 27.4865C9.70338 24.3011 7.35024 22.2694 5.48227 20.8618L6.68586 19.2645Z"
        fill="url(#paint0_linear_1821_517)" mask="url(#path-2-outside-1_1821_517)"/>
    </g>
    <circle cx="4" cy="4" r="4" transform="matrix(-1 0 0 1 16 8)" fill="#595959"/>
  </g>
  <defs>
    <filter id="filter0_f_1821_517" x="6" y="25" width="12" height="8" filterUnits="userSpaceOnUse"
            color-interpolation-filters="sRGB">
      <feFlood flood-opacity="0" result="BackgroundImageFix"/>
      <feBlend mode="normal" in="SourceGraphic" in2="BackgroundImageFix" result="shape"/>
      <feGaussianBlur stdDeviation="1" result="effect1_foregroundBlur_1821_517"/>
    </filter>
    <linearGradient id="paint0_linear_1821_517" x1="12" y1="2" x2="12" y2="27.9969" gradientUnits="userSpaceOnUse">
      <stop stop-color="white" offset="0"/>
      <stop offset="1" stop-color="white" stop-opacity="0.35"/>
    </linearGradient>
    <clipPath id="clip0_1821_517">
      <rect width="24" height="32" fill="white" transform="matrix(-1 0 0 1 24 0)"/>
    </clipPath>
  </defs>
</svg>
